<svg xmlns="http://www.w3.org/2000/svg" xmlns:xlink="http://www.w3.org/1999/xlink" width="500" zoomAndPan="magnify" viewBox="0 0 375 374.999991" height="500" preserveAspectRatio="xMidYMid meet" version="1.0"><defs><g/><clipPath id="51ca40d5fb"><path d="M 132.824219 109.753906 L 245.324219 109.753906 L 245.324219 191.503906 L 132.824219 191.503906 Z M 132.824219 109.753906 " clip-rule="nonzero"/></clipPath></defs><g clip-path="url(#51ca40d5fb)"><path fill="#ff0000" d="M 154.152344 112.84375 C 151.765625 112.84375 149.824219 114.78125 149.824219 117.171875 L 149.824219 164.558594 L 136.683594 180.273438 C 136.171875 180.886719 135.886719 181.664062 135.886719 182.460938 L 135.886719 184.378906 C 135.886719 186.605469 137.699219 188.417969 139.921875 188.417969 L 238.070312 188.417969 C 240.296875 188.417969 242.105469 186.605469 242.105469 184.378906 L 242.105469 182.460938 C 242.105469 181.664062 241.820312 180.886719 241.3125 180.269531 L 228.167969 164.558594 L 228.167969 117.171875 C 228.167969 114.78125 226.230469 112.84375 223.84375 112.84375 Z M 238.070312 191.523438 L 139.921875 191.523438 C 135.992188 191.523438 132.789062 188.320312 132.789062 184.378906 L 132.789062 182.460938 C 132.789062 180.9375 133.328125 179.449219 134.308594 178.277344 L 146.722656 163.421875 L 146.722656 117.171875 C 146.722656 113.070312 150.054688 109.734375 154.152344 109.734375 L 223.84375 109.734375 C 227.9375 109.734375 231.269531 113.070312 231.269531 117.171875 L 231.269531 163.421875 L 243.6875 178.273438 C 244.667969 179.449219 245.207031 180.9375 245.207031 182.460938 L 245.207031 184.378906 C 245.207031 188.320312 242.003906 191.523438 238.070312 191.523438 " fill-opacity="1" fill-rule="nonzero"/></g><path fill="#ff0000" d="M 229.71875 165.539062 L 148.273438 165.539062 L 148.273438 162.433594 L 229.71875 162.433594 L 229.71875 165.539062 " fill-opacity="1" fill-rule="nonzero"/><path fill="#ff0000" d="M 243.65625 182.210938 L 200.136719 182.210938 L 200.136719 179.101562 L 243.65625 179.101562 L 243.65625 182.210938 " fill-opacity="1" fill-rule="nonzero"/><path fill="#ff0000" d="M 177.859375 182.210938 L 134.335938 182.210938 L 134.335938 179.101562 L 177.859375 179.101562 L 177.859375 182.210938 " fill-opacity="1" fill-rule="nonzero"/><path fill="#ff0000" d="M 229.71875 121.257812 L 148.273438 121.257812 L 148.273438 118.148438 L 229.71875 118.148438 L 229.71875 121.257812 " fill-opacity="1" fill-rule="nonzero"/><path fill="#ff0000" d="M 178.722656 175.835938 L 178.5625 176.039062 L 179.855469 182.890625 C 179.875 182.964844 179.941406 183.023438 180.027344 183.023438 L 197.96875 183.023438 C 198.050781 183.023438 198.121094 182.964844 198.136719 182.890625 L 199.433594 176.039062 L 199.269531 175.835938 Z M 197.96875 186.132812 L 180.027344 186.132812 C 178.457031 186.132812 177.105469 185.011719 176.816406 183.472656 L 175.515625 176.621094 C 175.328125 175.660156 175.582031 174.671875 176.203125 173.917969 C 176.828125 173.164062 177.742188 172.730469 178.722656 172.730469 L 199.269531 172.730469 C 200.25 172.730469 201.167969 173.164062 201.789062 173.917969 C 202.414062 174.671875 202.667969 175.660156 202.480469 176.621094 L 201.179688 183.46875 C 200.886719 185.011719 199.535156 186.132812 197.96875 186.132812 " fill-opacity="1" fill-rule="nonzero"/><path fill="#ff0000" d="M 171.570312 141.371094 L 171.578125 141.371094 C 171.578125 141.371094 171.578125 141.371094 171.570312 141.371094 Z M 178.992188 153.070312 C 178.578125 153.070312 178.171875 152.90625 177.863281 152.585938 L 169.316406 143.507812 C 168.445312 142.582031 168.445312 141.128906 169.316406 140.199219 L 177.863281 131.125 C 178.457031 130.5 179.433594 130.46875 180.058594 131.058594 C 180.679688 131.644531 180.710938 132.628906 180.125 133.253906 L 172.023438 141.851562 L 180.125 150.449219 C 180.710938 151.074219 180.679688 152.058594 180.058594 152.644531 C 179.761719 152.929688 179.371094 153.070312 178.992188 153.070312 " fill-opacity="1" fill-rule="nonzero"/><path fill="#ff0000" d="M 206.417969 141.371094 Z M 206.417969 142.332031 L 206.4375 142.332031 Z M 199.003906 153.070312 C 198.621094 153.070312 198.234375 152.929688 197.9375 152.644531 C 197.3125 152.058594 197.285156 151.074219 197.871094 150.449219 L 205.96875 141.851562 L 197.871094 133.253906 C 197.285156 132.628906 197.3125 131.644531 197.9375 131.058594 C 198.5625 130.46875 199.535156 130.5 200.128906 131.125 L 208.675781 140.195312 C 209.550781 141.128906 209.550781 142.582031 208.671875 143.507812 L 200.128906 152.585938 C 199.820312 152.90625 199.414062 153.070312 199.003906 153.070312 " fill-opacity="1" fill-rule="nonzero"/><path fill="#ff0000" d="M 185.933594 156.039062 C 185.8125 156.039062 185.683594 156.027344 185.5625 155.996094 C 184.726562 155.789062 184.21875 154.953125 184.417969 154.113281 L 190.558594 128.855469 C 190.761719 128.015625 191.609375 127.503906 192.433594 127.710938 C 193.265625 127.914062 193.777344 128.75 193.578125 129.589844 L 187.433594 154.855469 C 187.265625 155.558594 186.628906 156.039062 185.933594 156.039062 " fill-opacity="1" fill-rule="nonzero"/><g fill="#000000" fill-opacity="1"><g transform="translate(53.373696, 236.37416)"><g><path d="M 19.09375 -17.234375 C 18.75 -18.421875 18.117188 -19.351562 17.203125 -20.03125 C 16.285156 -20.707031 15.140625 -21.046875 13.765625 -21.046875 C 11.816406 -21.046875 10.238281 -20.328125 9.03125 -18.890625 C 7.820312 -17.453125 7.21875 -15.40625 7.21875 -12.75 C 7.21875 -10.09375 7.8125 -8.035156 9 -6.578125 C 10.1875 -5.128906 11.789062 -4.40625 13.8125 -4.40625 C 15.601562 -4.40625 17.007812 -4.867188 18.03125 -5.796875 C 19.050781 -6.734375 19.578125 -7.992188 19.609375 -9.578125 L 14.140625 -9.578125 L 14.140625 -13.625 L 24.796875 -13.625 L 24.796875 -10.421875 C 24.796875 -8.191406 24.320312 -6.269531 23.375 -4.65625 C 22.4375 -3.039062 21.140625 -1.800781 19.484375 -0.9375 C 17.828125 -0.0820312 15.925781 0.34375 13.78125 0.34375 C 11.394531 0.34375 9.296875 -0.179688 7.484375 -1.234375 C 5.679688 -2.296875 4.273438 -3.800781 3.265625 -5.75 C 2.265625 -7.695312 1.765625 -10.015625 1.765625 -12.703125 C 1.765625 -15.453125 2.289062 -17.804688 3.34375 -19.765625 C 4.394531 -21.722656 5.816406 -23.21875 7.609375 -24.25 C 9.410156 -25.28125 11.429688 -25.796875 13.671875 -25.796875 C 15.597656 -25.796875 17.335938 -25.429688 18.890625 -24.703125 C 20.453125 -23.972656 21.726562 -22.960938 22.71875 -21.671875 C 23.71875 -20.390625 24.332031 -18.910156 24.5625 -17.234375 Z M 19.09375 -17.234375 "/></g></g></g><g fill="#000000" fill-opacity="1"><g transform="translate(87.550369, 236.37416)"><g><path d="M 14 -12.546875 L 14 -8.359375 L 2.40625 -8.359375 L 2.40625 -12.546875 Z M 14 -12.546875 "/></g></g></g><g fill="#000000" fill-opacity="1"><g transform="translate(111.512768, 236.37416)"><g><path d="M 2.21875 0 L 2.21875 -25.453125 L 12.25 -25.453125 C 14.1875 -25.453125 15.832031 -25.082031 17.1875 -24.34375 C 18.550781 -23.613281 19.585938 -22.597656 20.296875 -21.296875 C 21.015625 -20.003906 21.375 -18.515625 21.375 -16.828125 C 21.375 -15.140625 21.007812 -13.648438 20.28125 -12.359375 C 19.550781 -11.066406 18.492188 -10.054688 17.109375 -9.328125 C 15.734375 -8.609375 14.070312 -8.25 12.125 -8.25 L 7.59375 -8.25 L 7.59375 0 Z M 7.59375 -12.5625 L 11.25 -12.5625 C 12.789062 -12.5625 13.9375 -12.957031 14.6875 -13.75 C 15.445312 -14.539062 15.828125 -15.566406 15.828125 -16.828125 C 15.828125 -18.097656 15.445312 -19.117188 14.6875 -19.890625 C 13.9375 -20.671875 12.78125 -21.0625 11.21875 -21.0625 L 7.59375 -21.0625 Z M 7.59375 -12.5625 "/></g></g></g><g fill="#000000" fill-opacity="1"><g transform="translate(141.737934, 236.37416)"><g><path d="M 17.96875 -25.453125 L 23.3125 -25.453125 L 23.3125 -8.625 C 23.3125 -6.707031 22.859375 -5.078125 21.953125 -3.734375 C 21.054688 -2.398438 19.8125 -1.382812 18.21875 -0.6875 C 16.632812 0.0078125 14.816406 0.359375 12.765625 0.359375 C 10.710938 0.359375 8.890625 0.0078125 7.296875 -0.6875 C 5.703125 -1.382812 4.457031 -2.398438 3.5625 -3.734375 C 2.664062 -5.078125 2.21875 -6.707031 2.21875 -8.625 L 2.21875 -25.453125 L 7.59375 -25.453125 L 7.59375 -8.8125 C 7.59375 -7.457031 8.082031 -6.390625 9.0625 -5.609375 C 10.050781 -4.828125 11.285156 -4.4375 12.765625 -4.4375 C 14.273438 -4.4375 15.519531 -4.828125 16.5 -5.609375 C 17.476562 -6.390625 17.96875 -7.457031 17.96875 -8.8125 Z M 17.96875 -25.453125 "/></g></g></g><g fill="#000000" fill-opacity="1"><g transform="translate(174.821114, 236.37416)"><g><path d="M 2.21875 0 L 2.21875 -25.453125 L 7.59375 -25.453125 L 7.59375 -4.4375 L 18.5 -4.4375 L 18.5 0 Z M 2.21875 0 "/></g></g></g><g fill="#000000" fill-opacity="1"><g transform="translate(202.237975, 236.37416)"><g><path d="M 2.21875 0 L 2.21875 -25.453125 L 19.359375 -25.453125 L 19.359375 -21.015625 L 7.59375 -21.015625 L 7.59375 -14.953125 L 18.484375 -14.953125 L 18.484375 -10.515625 L 7.59375 -10.515625 L 7.59375 -4.4375 L 19.421875 -4.4375 L 19.421875 0 Z M 2.21875 0 "/></g></g></g><g fill="#000000" fill-opacity="1"><g transform="translate(231.232952, 236.37416)"><g><path d="M 23.5 -25.453125 L 23.5 0 L 18.859375 0 L 7.78125 -16.015625 L 7.59375 -16.015625 L 7.59375 0 L 2.21875 0 L 2.21875 -25.453125 L 6.9375 -25.453125 L 17.921875 -9.453125 L 18.140625 -9.453125 L 18.140625 -25.453125 Z M 23.5 -25.453125 "/></g></g></g><g fill="#000000" fill-opacity="1"><g transform="translate(264.514955, 236.37416)"><g><path d="M 1.25 -21.015625 L 1.25 -25.453125 L 22.15625 -25.453125 L 22.15625 -21.015625 L 14.359375 -21.015625 L 14.359375 0 L 9.03125 0 L 9.03125 -21.015625 Z M 1.25 -21.015625 "/></g></g></g><g fill="#000000" fill-opacity="1"><g transform="translate(295.46083, 236.37416)"><g><path d="M 6.59375 0 L 0.828125 0 L 9.625 -25.453125 L 16.5625 -25.453125 L 25.328125 0 L 19.5625 0 L 17.671875 -5.796875 L 8.484375 -5.796875 Z M 9.859375 -10 L 16.3125 -10 L 13.1875 -19.640625 L 12.984375 -19.640625 Z M 9.859375 -10 "/></g></g></g></svg>